<svg width="14" height="15" viewBox="0 0 14 15" fill="none" xmlns="http://www.w3.org/2000/svg">
<path d="M12.9062 5.96875L13.5938 6.65625C13.875 6.96875 13.875 7.4375 13.5938 7.71875L7.53125 13.7812C7.21875 14.0938 6.75 14.0938 6.46875 13.7812L0.375 7.71875C0.09375 7.4375 0.09375 6.9375 0.375 6.65625L1.0625 5.96875C1.375 5.65625 1.84375 5.6875 2.15625 5.96875L5.75 9.75V0.75C5.75 0.34375 6.0625 0 6.5 0H7.5C7.90625 0 8.25 0.34375 8.25 0.75V9.75L11.8125 5.96875C12.125 5.6875 12.5938 5.65625 12.9062 5.96875Z" fill="#4F4F4F"/>
</svg>
