<svg width="16" height="16" viewBox="0 0 16 16" fill="none" xmlns="http://www.w3.org/2000/svg">
<path d="M12.3918 14.2746H3.60745C3.27462 14.2746 2.95543 14.1425 2.7201 13.9071C2.48476 13.6718 2.35254 13.3526 2.35254 13.0198V4.23545C2.35254 3.90263 2.48476 3.58344 2.7201 3.34809C2.95543 3.11276 3.27462 2.98055 3.60745 2.98055H4.86235V1.72565H6.11724V2.98055H9.88194V1.72565H11.1368V2.98055H12.3918C12.7246 2.98055 13.0437 3.11276 13.2791 3.34809C13.5144 3.58344 13.6466 3.90263 13.6466 4.23545V13.0198C13.6466 13.3526 13.5144 13.6718 13.2791 13.9071C13.0437 14.1425 12.7246 14.2746 12.3918 14.2746ZM3.60745 6.74525V13.0198H12.3918V6.74525H3.60745ZM3.60745 4.23545V5.49035H12.3918V4.23545H3.60745Z" fill="#B9C3D3"/>
</svg>
