<svg width="32" height="33" viewBox="0 0 32 33" fill="none" xmlns="http://www.w3.org/2000/svg">
<path d="M27.3198 3.5H4.68977C3.76193 3.5 3.00977 4.25216 3.00977 5.18V27.81C3.00977 28.7378 3.76193 29.49 4.68977 29.49H27.3198C28.2476 29.49 28.9998 28.7378 28.9998 27.81V5.18C28.9998 4.25216 28.2476 3.5 27.3198 3.5Z" fill="#3B5998"/>
<path d="M22.05 10.94H24.65V7.21001C23.71 7.12001 22.44 7.10001 21 7.11001C19.7498 7.12056 18.5544 7.6246 17.6741 8.51238C16.7939 9.40016 16.3 10.5998 16.3 11.85V15.5H12.75V19.5H16.3V29.5H20.47V19.5H24L24.5 15.45H20.5V12.5C20.5051 12.0896 20.6698 11.6973 20.9591 11.4061C21.2484 11.1149 21.6396 10.9478 22.05 10.94Z" fill="white"/>
</svg>
