<svg width="575" height="455" viewBox="0 0 575 455" fill="none" xmlns="http://www.w3.org/2000/svg">
<g clip-path="url(#clip0_1204_10069)">
<path d="M206.254 261.857C225.96 220.582 263.548 188.89 303.338 191.943C273.988 229.948 256.873 279.088 255.022 330.671C254.368 350.568 255.382 372.779 244.287 387.677C237.383 396.947 226.831 401.437 216.457 402.378C206.081 403.32 195.708 401.088 185.472 398.865L182.988 399.773C182.043 352.309 186.549 303.131 206.254 261.857Z" fill="#83D958"/>
<path d="M303.397 192.937C273.972 209.803 248.882 237.972 233.481 272.325C230.151 279.753 227.316 287.632 226.079 295.963C224.842 304.298 225.706 312.232 228.097 320.148C230.283 327.385 233.222 334.486 233.892 342.23C234.599 350.392 232.077 358.024 227.536 364.081C221.981 371.492 214.521 376.084 207.095 380.273C198.849 384.924 190.223 389.599 184.383 398.28C183.675 399.332 182.346 397.963 183.052 396.913C193.213 381.81 210.606 378.971 222.668 366.805C228.295 361.128 232.521 353.397 232.254 344.339C232.021 336.418 228.995 329.092 226.729 321.787C224.349 314.117 223.162 306.405 224.016 298.227C224.889 289.862 227.471 281.834 230.627 274.338C237.744 257.433 247.484 241.912 258.641 228.496C271.464 213.074 286.409 200.378 302.828 190.957C303.844 190.374 304.406 192.358 303.397 192.937Z" fill="white"/>
<path d="M237.993 260.844C233.482 256.917 230.291 251.208 228.989 244.738C227.686 238.267 228.358 231.456 230.884 225.521C231.399 224.322 232.987 225.218 232.472 226.418C230.111 231.94 229.486 238.285 230.709 244.307C231.932 250.33 234.923 255.633 239.141 259.26C240.057 260.05 238.904 261.63 237.993 260.844Z" fill="white"/>
<path d="M226.582 316.652C237.885 314.686 248.15 307.719 255.331 297.14C256.042 296.092 257.371 297.46 256.661 298.508C249.172 309.499 238.477 316.723 226.711 318.739C225.589 318.93 225.466 316.842 226.582 316.652Z" fill="white"/>
<path d="M272.332 215.649C273.811 217.602 275.675 219.086 277.755 219.969C279.836 220.852 282.068 221.107 284.251 220.709C285.37 220.501 285.491 222.589 284.38 222.796C281.966 223.222 279.501 222.938 277.201 221.968C274.9 220.998 272.835 219.373 271.184 217.233C271.014 217.047 270.91 216.791 270.893 216.517C270.876 216.243 270.948 215.971 271.093 215.757C271.246 215.549 271.462 215.42 271.694 215.4C271.926 215.38 272.155 215.469 272.332 215.649Z" fill="white"/>
<path d="M382.508 322.149C381.813 322.302 381.117 322.456 380.415 322.625C371.072 324.748 361.889 327.77 352.957 331.663C352.262 331.951 351.562 332.255 350.876 332.566C329.44 342.218 309.696 356.525 292.647 374.759C285.868 382.023 279.564 389.889 273.787 398.292C265.811 409.896 257.937 423.234 247.514 430.8C246.434 431.604 245.313 432.327 244.158 432.966L184.11 403.31C184.002 403.161 183.888 403.028 183.779 402.878L181.336 401.825C181.608 401.367 181.899 400.899 182.172 400.441C182.329 400.174 182.499 399.914 182.657 399.648C182.766 399.472 182.875 399.297 182.965 399.131C183.001 399.072 183.038 399.014 183.069 398.972C183.158 398.806 183.257 398.663 183.341 398.513C184.961 395.891 186.599 393.278 188.256 390.674C188.261 390.657 188.261 390.657 188.28 390.648C200.945 370.843 215.109 352.123 231.209 336.558C231.693 336.09 232.183 335.605 232.695 335.15C239.984 328.182 247.74 321.935 255.885 316.472C260.353 313.497 264.944 310.794 269.641 308.372C281.789 302.142 294.684 298.226 307.853 296.768C334.106 293.865 360.847 300.992 380.982 320.63C381.497 321.133 381.999 321.63 382.508 322.149Z" fill="#A9EC7B"/>
<path d="M382.058 322.99C350.036 315.362 315.76 319.867 286.092 336.255C279.678 339.798 273.43 344.057 268.23 349.822C263.028 355.59 259.706 362.544 257.612 370.579C255.698 377.924 254.455 385.701 251.074 392.365C247.511 399.388 241.638 403.674 234.951 405.255C226.768 407.19 218.49 405.509 210.442 403.529C201.507 401.332 192.255 398.881 183.202 401.625C182.105 401.958 181.736 399.912 182.831 399.58C198.581 394.805 213.904 405.007 229.686 403.94C237.05 403.442 244.332 400.298 248.7 392.874C252.519 386.383 253.807 378.364 255.691 370.907C257.67 363.077 260.622 356.068 265.438 350.151C270.365 344.097 276.486 339.539 282.796 335.816C297.026 327.42 312.651 322.01 328.343 319.297C346.38 316.176 364.732 316.753 382.605 321.001C383.711 321.264 383.157 323.251 382.058 322.99Z" fill="white"/>
<path d="M295.499 330.322C293.883 323.953 294.221 317.107 296.453 311.007C298.685 304.907 302.665 299.95 307.683 297.022C308.7 296.434 309.516 298.288 308.498 298.877C303.821 301.593 300.113 306.211 298.045 311.896C295.976 317.582 295.682 323.96 297.216 329.881C297.549 331.168 295.829 331.602 295.499 330.322Z" fill="white"/>
<path d="M258.168 366.702C268.187 373.235 279.906 375.032 290.988 371.733C292.086 371.405 292.456 373.451 291.359 373.779C279.821 377.185 267.629 375.287 257.215 368.461C256.223 367.81 257.181 366.055 258.168 366.702Z" fill="white"/>
<path d="M345.768 318.855C345.962 321.474 346.699 323.995 347.913 326.192C349.128 328.388 350.782 330.191 352.726 331.439C353.725 332.075 352.766 333.829 351.773 333.197C349.631 331.807 347.806 329.813 346.46 327.39C345.114 324.967 344.286 322.188 344.05 319.296C344.008 319.026 344.055 318.747 344.18 318.516C344.305 318.285 344.499 318.119 344.723 318.053C344.951 317.996 345.189 318.048 345.384 318.198C345.58 318.348 345.717 318.584 345.768 318.855Z" fill="white"/>
<path d="M268.121 371.076C259.712 322.661 249.2 306.519 249.2 306.519L245.184 302.811L240.355 298.344L240.378 297.77L239.233 297.307L238.964 297.058L238.523 296.655L238.452 296.745L238.302 296.93L216.449 288.085L188.724 276.872L175.886 257.002C173.795 253.766 171.103 251.151 168.021 249.361C164.939 247.571 161.551 246.655 158.122 246.686L117.121 247.047C111.577 247.096 106.249 249.612 102.185 254.101L75.2354 283.866L33.243 307.746L33.1721 307.661L32.7311 308.036L26.2429 311.73L26.5107 313.39L22.4949 316.84C22.4949 316.84 11.983 331.86 3.57348 376.91C1.43419 388.373 0.381157 412.962 0.00106813 443.263C-0.0180237 444.796 0.218993 446.318 0.69833 447.74C1.17767 449.163 1.88977 450.458 2.79322 451.55C3.69667 452.642 4.77345 453.51 5.96096 454.102C7.14846 454.694 8.42299 455 9.71045 455H234L261.994 455C263.281 454.999 264.555 454.694 265.741 454.103C266.928 453.511 268.004 452.645 268.908 451.554C269.811 450.463 270.523 449.17 271.003 447.748C271.483 446.327 271.721 444.806 271.704 443.275C271.333 410.303 270.28 383.507 268.121 371.076Z" fill="#FF8A56"/>
<path d="M296.898 42.2222C288.172 42.2222 279.803 46.3497 273.633 53.6967C267.463 61.0438 263.996 71.0085 263.996 81.3988C263.996 91.7891 267.463 101.754 273.633 109.101C279.803 116.448 288.172 120.575 296.898 120.575H542.097C550.824 120.575 559.192 116.448 565.363 109.101C571.533 101.754 574.999 91.7891 574.999 81.3988C574.999 71.0085 571.533 61.0438 565.363 53.6967C559.192 46.3497 550.824 42.2222 542.097 42.2222H296.898Z" fill="#E5E5E5"/>
<path d="M296.9 50.1509C289.939 50.1509 283.264 53.4431 278.343 59.3032C273.421 65.1634 270.656 73.1114 270.656 81.3989C270.656 89.6864 273.421 97.6345 278.343 103.495C283.264 109.355 289.939 112.647 296.9 112.647H542.099C549.059 112.647 555.734 109.355 560.656 103.495C565.577 97.6345 568.342 89.6864 568.342 81.3989C568.342 73.1114 565.577 65.1634 560.656 59.3032C555.734 53.4431 549.059 50.1509 542.099 50.1509H296.9Z" fill="white"/>
<path d="M144.059 228.345C173.726 228.345 197.775 199.709 197.775 164.386C197.775 129.062 173.726 100.427 144.059 100.427C114.393 100.427 90.3438 129.062 90.3438 164.386C90.3438 199.709 114.393 228.345 144.059 228.345Z" fill="#9E616A"/>
<path d="M130.319 225.213C130.09 224.612 129.861 224.008 129.633 223.402C129.721 223.405 129.808 223.421 129.896 223.423L130.319 225.213Z" fill="#2F2E41"/>
<path d="M88.8502 103.335C91.567 100.754 94.7423 98.38 98.2158 98.5134C101.689 98.6467 105.212 102.382 104.492 106.431C110.872 92.9798 121.027 82.6346 133.175 77.2109C145.323 71.7872 158.687 71.6315 170.921 76.7711C179.554 80.3978 188.02 87.6532 190.003 98.2947C190.512 101.026 190.622 104.022 192.054 106.24C193.86 109.037 197.316 109.669 200.161 108.686C200.19 108.676 200.218 108.666 200.246 108.656C200.727 108.46 201.246 108.441 201.736 108.6C202.226 108.76 202.664 109.091 202.995 109.55C203.325 110.01 203.532 110.577 203.589 111.178C203.645 111.779 203.549 112.386 203.313 112.922L200.87 118.346C203.95 119.163 207.149 119.082 210.196 118.11C210.703 117.952 211.237 117.984 211.728 118.202C212.218 118.42 212.639 118.814 212.934 119.329C213.229 119.843 213.383 120.454 213.375 121.077C213.367 121.7 213.197 122.305 212.889 122.808C204.835 135.976 191.378 144.478 177.646 144.379C167.886 144.308 158.026 140.303 148.527 142.975C144.853 144.009 141.419 146.009 138.478 148.829C135.538 151.649 133.165 155.217 131.533 159.272C129.902 163.326 129.053 167.764 129.05 172.26C129.047 176.756 129.889 181.196 131.515 185.253C128.597 181.453 122.956 182.353 119.971 186.079C116.987 189.805 116.214 195.366 116.515 200.503C116.975 208.36 119.56 215.763 122.285 222.968C99.4352 222.112 77.8228 203.026 70.5481 177.212C63.2429 151.29 70.899 120.386 88.8502 103.335Z" fill="#2F2E41"/>
<path opacity="0.2" d="M52.8711 356.459L67.9371 454.063L76.977 455L52.8711 356.459Z" fill="black"/>
<path opacity="0.2" d="M218.825 349.098L203.759 453.992L194.719 455L218.825 349.098Z" fill="black"/>
<path d="M101.701 70.4868C98.8122 71.9231 95.7979 70.349 94.5338 66.7444C93.2504 63.0846 94.4491 59.3695 97.3841 57.9102C100.319 56.4508 103.28 58.0287 104.584 61.7475C105.869 65.4105 104.683 69.0041 101.701 70.4868ZM96.1673 50.7066L93.8705 51.8486C93.2967 52.1305 92.655 52.1457 92.0722 51.8912C91.4895 51.6367 91.0082 51.131 90.7235 50.4742L90.6099 50.2096C88.1386 44.9027 87.8556 38.4527 89.7733 31.0492C91.5499 24.4078 92.2878 19.737 90.8038 15.5054C89.0881 10.613 85.4244 9.0804 80.7524 11.3005C78.9403 12.2014 78.3637 12.1871 76.9377 13.8714C76.6275 14.2423 76.2578 14.535 75.8506 14.732C75.4433 14.929 75.007 15.0264 74.5674 15.0183C74.1426 15.0124 73.723 14.9046 73.3339 14.7014C72.9447 14.4983 72.5939 14.2038 72.3024 13.8358C71.7407 13.1264 71.426 12.1897 71.4219 11.2149C71.4178 10.24 71.7245 9.29956 72.2801 8.5835C74.677 5.59598 77.5679 3.23248 80.7704 1.64213C90.8087 -3.34884 95.862 4.01961 98.1744 10.6137C100.436 17.0634 99.164 23.0477 97.1196 30.798C95.4064 37.238 95.5062 42.0099 97.4523 46.7547C97.5928 47.1134 97.671 47.5022 97.6821 47.8978C97.6932 48.2934 97.6371 48.6876 97.5171 49.0567C97.3971 49.4258 97.2157 49.7622 96.9837 50.0457C96.7518 50.3293 96.4741 50.5541 96.1673 50.7066Z" fill="#FF5001"/>
<path d="M351.058 100.084H302.273C302.118 100.085 301.964 100.05 301.821 99.9798C301.677 99.91 301.547 99.8071 301.437 99.6771C301.327 99.547 301.24 99.3924 301.18 99.222C301.12 99.0516 301.09 98.8689 301.09 98.6843C301.09 98.4998 301.12 98.3171 301.18 98.1467C301.24 97.9763 301.327 97.8217 301.437 97.6916C301.547 97.5616 301.677 97.4587 301.821 97.389C301.964 97.3192 302.118 97.2839 302.273 97.2852H351.058C351.369 97.2877 351.666 97.4362 351.884 97.6983C352.103 97.9605 352.226 98.3149 352.226 98.6843C352.226 99.0538 352.103 99.4082 351.884 99.6704C351.666 99.9325 351.369 100.081 351.058 100.084Z" fill="#FF5001"/>
<path d="M412.949 100.55H364.164C364.009 100.551 363.855 100.516 363.711 100.446C363.568 100.376 363.437 100.273 363.327 100.143C363.218 100.013 363.13 99.8587 363.071 99.6883C363.011 99.5179 362.98 99.3352 362.98 99.1507C362.98 98.9661 363.011 98.7834 363.071 98.613C363.13 98.4426 363.218 98.288 363.327 98.1579C363.437 98.0279 363.568 97.925 363.711 97.8553C363.855 97.7855 364.009 97.7502 364.164 97.7515H412.949C413.104 97.7502 413.258 97.7855 413.401 97.8553C413.545 97.925 413.675 98.0279 413.785 98.1579C413.895 98.288 413.982 98.4426 414.042 98.613C414.102 98.7834 414.132 98.9661 414.132 99.1507C414.132 99.3352 414.102 99.5179 414.042 99.6883C413.982 99.8587 413.895 100.013 413.785 100.143C413.675 100.273 413.545 100.376 413.401 100.446C413.258 100.516 413.104 100.551 412.949 100.55Z" fill="#FF5001"/>
<path d="M474.835 101.016H426.05C425.74 101.014 425.443 100.865 425.224 100.603C425.006 100.341 424.883 99.9864 424.883 99.617C424.883 99.2475 425.006 98.8931 425.224 98.6309C425.443 98.3688 425.74 98.2203 426.05 98.2178H474.835C474.99 98.2166 475.144 98.2518 475.288 98.3216C475.431 98.3913 475.562 98.4942 475.672 98.6242C475.782 98.7543 475.869 98.9089 475.928 99.0793C475.988 99.2497 476.019 99.4324 476.019 99.617C476.019 99.8015 475.988 99.9842 475.928 100.155C475.869 100.325 475.782 100.48 475.672 100.61C475.562 100.74 475.431 100.843 475.288 100.912C475.144 100.982 474.99 101.017 474.835 101.016Z" fill="#FF5001"/>
<path d="M536.722 101.483H487.937C487.626 101.48 487.33 101.332 487.111 101.069C486.892 100.807 486.77 100.453 486.77 100.083C486.77 99.714 486.892 99.3596 487.111 99.0975C487.33 98.8353 487.626 98.6868 487.937 98.6843H536.722C537.032 98.6868 537.329 98.8353 537.548 99.0975C537.767 99.3596 537.889 99.714 537.889 100.083C537.889 100.453 537.767 100.807 537.548 101.069C537.329 101.332 537.032 101.48 536.722 101.483Z" fill="#FF5001"/>
<path d="M326.559 87.2068C331.567 87.2068 335.626 82.3732 335.626 76.4105C335.626 70.4479 331.567 65.6143 326.559 65.6143C321.552 65.6143 317.492 70.4479 317.492 76.4105C317.492 82.3732 321.552 87.2068 326.559 87.2068Z" fill="#FF5001"/>
<path d="M388.821 87.2068C393.829 87.2068 397.888 82.3732 397.888 76.4105C397.888 70.4479 393.829 65.6143 388.821 65.6143C383.813 65.6143 379.754 70.4479 379.754 76.4105C379.754 82.3732 383.813 87.2068 388.821 87.2068Z" fill="#FF5001"/>
<path d="M451.083 87.2068C456.09 87.2068 460.15 82.3732 460.15 76.4105C460.15 70.4479 456.09 65.6143 451.083 65.6143C446.075 65.6143 442.016 70.4479 442.016 76.4105C442.016 82.3732 446.075 87.2068 451.083 87.2068Z" fill="#FF5001"/>
<path d="M513.344 87.2068C518.352 87.2068 522.412 82.3732 522.412 76.4105C522.412 70.4479 518.352 65.6143 513.344 65.6143C508.337 65.6143 504.277 70.4479 504.277 76.4105C504.277 82.3732 508.337 87.2068 513.344 87.2068Z" fill="#FF5001"/>
</g>
<defs>
<clipPath id="clip0_1204_10069">
<rect width="575" height="455" fill="white"/>
</clipPath>
</defs>
</svg>
