<svg width="32" height="33" viewBox="0 0 32 33" fill="none" xmlns="http://www.w3.org/2000/svg">
<path d="M27.32 3.5H4.68C3.75216 3.5 3 4.25216 3 5.18V27.82C3 28.7478 3.75216 29.5 4.68 29.5H27.32C28.2478 29.5 29 28.7478 29 27.82V5.18C29 4.25216 28.2478 3.5 27.32 3.5Z" fill="#009FE3"/>
<path d="M20.5279 13.5537L14.9879 18.9037C14.8856 19.0067 14.8069 19.1307 14.7573 19.2672C14.7077 19.4036 14.6885 19.5492 14.7008 19.6938C14.7132 19.8385 14.7569 19.9787 14.8289 20.1047C14.901 20.2308 14.9996 20.3396 15.1179 20.4237L20.6879 24.1837C20.8732 24.323 21.0915 24.4119 21.3215 24.4416C21.5514 24.4713 21.7851 24.4408 21.9997 24.3531C22.2144 24.2655 22.4026 24.1236 22.546 23.9414C22.6894 23.7592 22.7831 23.543 22.8179 23.3137C23.5179 19.4537 24.2079 15.4337 24.9279 10.8137C24.9582 10.6168 24.9365 10.4154 24.8647 10.2295C24.793 10.0436 24.6738 9.8798 24.519 9.75435C24.3642 9.6289 24.1792 9.5462 23.9825 9.51451C23.7858 9.48282 23.5842 9.50324 23.3979 9.57373C19.6079 11.0337 11.2779 14.5737 7.45788 16.1837C7.31357 16.2462 7.19221 16.352 7.11053 16.4864C7.02885 16.6208 6.99088 16.7772 7.00185 16.9341C7.01282 17.091 7.0722 17.2406 7.17179 17.3623C7.27137 17.4841 7.40627 17.5719 7.55788 17.6137L10.2179 18.3437C10.7034 18.4779 11.2122 18.5053 11.7094 18.4242C12.2065 18.343 12.6802 18.1553 13.0979 17.8737L20.0979 13.1437C20.3379 12.9237 20.7379 13.3137 20.5279 13.5537Z" fill="#FEFFFF"/>
</svg>
