<svg width="25" height="23" viewBox="0 0 25 23" fill="none" xmlns="http://www.w3.org/2000/svg">
<path d="M24.2109 2.95C23.359 3.52486 22.334 3.78639 21.3109 3.69C22.2509 3.57 23.1109 2.35 23.3609 1.69C23.4686 1.44505 23.5033 1.17421 23.4609 0.91C22.5185 1.50271 21.4845 1.93523 20.4009 2.19C19.9477 1.66233 19.3863 1.23831 18.7548 0.946711C18.1233 0.655115 17.4364 0.502766 16.7409 0.5C15.4322 0.526179 14.186 1.0645 13.2698 1.99936C12.3536 2.93422 11.8406 4.19106 11.8409 5.5C11.8483 6.00567 11.9291 6.50758 12.0809 6.99C10.4448 7.02602 8.81784 6.73598 7.29497 6.13679C5.77211 5.5376 4.38376 4.64125 3.21086 3.5C2.55839 2.93548 2.013 2.25798 1.60086 1.5C1.05668 2.40414 0.782558 3.44511 0.810859 4.5C0.874215 5.42881 1.1775 6.32528 1.69108 7.10177C2.20465 7.87827 2.91093 8.50821 3.74086 8.93C2.7191 9.02078 1.69599 8.77116 0.830859 8.22C0.873099 9.18577 1.1512 10.1265 1.64086 10.96C2.06949 11.6762 2.64967 12.2899 3.34068 12.7581C4.03169 13.2262 4.81678 13.5375 5.64086 13.67C4.67873 14.0592 3.60299 14.0592 2.64086 13.67C2.91734 14.7407 3.5337 15.6929 4.3974 16.3835C5.26111 17.0741 6.32553 17.4659 7.43086 17.5C5.47233 19.0251 3.10637 19.9367 0.630859 20.12C2.60034 21.5555 4.95517 22.3671 7.39086 22.45C9.36872 22.5279 11.3383 22.153 13.1493 21.3541C14.9603 20.5552 16.5649 19.3533 17.8409 17.84C20.6429 14.4929 22.0501 10.1962 21.7709 5.84C24.1909 4.14 24.2109 2.95 24.2109 2.95Z" fill="#00AEEF"/>
</svg>
