<svg xmlns="http://www.w3.org/2000/svg" width="206.497" height="206.493" viewBox="0 0 206.497 206.493">
  <g id="Group_27720" data-name="Group 27720" transform="translate(0)">
    <path id="Path_64" data-name="Path 64" d="M852.647,736.138A103.247,103.247,0,1,0,955.9,839.39,103.363,103.363,0,0,0,852.647,736.138Zm0,192.09A88.844,88.844,0,1,1,941.5,839.39,88.938,88.938,0,0,1,852.647,928.229Z" transform="translate(-749.401 -736.138)" fill="#2e2842"/>
    <path id="Path_65" data-name="Path 65" d="M802.4,744.336a7.2,7.2,0,0,0-7.2,7.2v54.257l-31.1,40.813a7.2,7.2,0,1,0,11.451,8.729l32.58-42.745a7.205,7.205,0,0,0,1.474-4.364V751.537A7.2,7.2,0,0,0,802.4,744.336Z" transform="translate(-699.154 -704.977)" fill="#2e2842"/>
  </g>
</svg>
