<svg width="32" height="33" viewBox="0 0 32 33" fill="none" xmlns="http://www.w3.org/2000/svg">
<path d="M27.32 3.5H4.68C3.75216 3.5 3 4.25216 3 5.18V27.82C3 28.7478 3.75216 29.5 4.68 29.5H27.32C28.2478 29.5 29 28.7478 29 27.82V5.18C29 4.25216 28.2478 3.5 27.32 3.5Z" fill="#1BD741"/>
<path d="M16 25.74C14.4211 25.7439 12.8679 25.3409 11.49 24.57L6.75 25.73L8.24 21.5C7.1263 19.7715 6.6203 17.7212 6.80192 15.673C6.98354 13.6248 7.84245 11.6955 9.24292 10.1899C10.6434 8.68435 12.5056 7.68834 14.5353 7.35924C16.5651 7.03015 18.6466 7.38674 20.451 8.37267C22.2555 9.3586 23.6799 10.9177 24.4994 12.8035C25.3189 14.6894 25.4867 16.7946 24.9762 18.7864C24.4657 20.7783 23.3061 22.5433 21.6805 23.8025C20.055 25.0618 18.0562 25.7435 16 25.74ZM11.73 22.96L11.99 23.12C13.1947 23.8546 14.579 24.2422 15.99 24.24C17.5213 24.242 19.0187 23.7897 20.2928 22.9404C21.567 22.0912 22.5606 20.883 23.148 19.4689C23.7353 18.0548 23.89 16.4982 23.5925 14.9961C23.295 13.4941 22.5586 12.114 21.4765 11.0305C20.3945 9.94707 19.0154 9.20891 17.5137 8.90945C16.012 8.60999 14.4552 8.76268 13.0403 9.34821C11.6255 9.93374 10.416 10.9258 9.56512 12.1988C8.7142 13.4719 8.26 14.9687 8.26 16.5C8.25167 18.1099 8.75215 19.6814 9.69 20.99L9.91 21.3L9.1 23.61L11.73 22.96Z" fill="white"/>
<path d="M14.5708 14.75C14.5849 14.7221 14.5922 14.6912 14.5922 14.66C14.5922 14.6287 14.5849 14.5979 14.5708 14.57C14.3196 13.8049 14.0121 13.0596 13.6508 12.34C13.4151 12.2847 13.1719 12.2678 12.9308 12.29C12.6975 12.3086 12.4749 12.3955 12.2908 12.54C11.8881 12.887 11.6076 13.3542 11.4905 13.8727C11.3735 14.3912 11.4262 14.9337 11.6408 15.42C12.4008 17.57 15.2008 20.3 17.8708 20.68C18.1823 20.7544 18.5067 20.7569 18.8193 20.6873C19.1319 20.6177 19.4246 20.4779 19.6751 20.2784C19.9257 20.0789 20.1275 19.825 20.2654 19.536C20.4032 19.2469 20.4735 18.9302 20.4708 18.61C20.4723 18.5762 20.4647 18.5426 20.4489 18.5128C20.4331 18.4829 20.4096 18.4577 20.3808 18.44C19.7115 18.0261 18.9968 17.6905 18.2508 17.44C18.2273 17.4236 18.1994 17.4149 18.1708 17.4149C18.1422 17.4149 18.1143 17.4236 18.0908 17.44C17.9308 17.61 17.5308 18.09 17.1608 18.57C17.1456 18.5788 17.1284 18.5834 17.1108 18.5834C17.0932 18.5834 17.076 18.5788 17.0608 18.57C16.3362 18.3508 15.6652 17.9834 15.0902 17.4911C14.5152 16.9987 14.0489 16.3922 13.7208 15.71C13.7111 15.6933 13.7061 15.6743 13.7061 15.655C13.7061 15.6357 13.7111 15.6167 13.7208 15.6C13.8708 15.58 14.2208 15.13 14.5708 14.75Z" fill="white"/>
</svg>
