<svg width="68" height="68" viewBox="0 0 68 68" fill="none" xmlns="http://www.w3.org/2000/svg">
<g filter="url(#filter0_d_894_12720)">
<rect x="2" y="1" width="64" height="64" rx="32" fill="white"/>
<path d="M20.2919 46.9466V46.8799H20.2252H19.7119H19.1985H19.1319V46.9466V47.4599V47.9733V48.0399H19.1985H19.7119H20.2252H20.2919V47.9733V47.4599V46.9466ZM18.2385 47.4599V45.9866H19.7119H21.1852V47.4599V48.9333H19.7119H18.2385V47.4599Z" fill="#126F0C" stroke="#1B1918" stroke-width="0.133333"/>
<path d="M36.91 48.9294C34.0161 48.5958 31.2056 47.1328 29.3704 45.0153C28.1256 43.5843 27.1759 41.8005 26.7909 40.2092L26.6818 39.76H24.4809H22.28V39.2467V38.7333H24.3847H26.4893L26.4444 38.3034C26.3802 37.7452 26.3802 36.6415 26.4444 36.0897L26.4893 35.6533H24.3847H22.28V35.14V34.6267H24.4937C26.5984 34.6267 26.7075 34.6202 26.7075 34.5112C26.7075 34.3122 27.1502 32.984 27.3877 32.4578L27.6122 31.9702L23.6917 28.0496L19.7647 24.1226L18.8792 20.5677C18.3915 18.6171 17.9937 17.0065 18.0001 17.0001C18.0065 16.9937 19.6171 17.3915 21.5677 17.8792L25.1226 18.7647L28.3245 21.9666L31.52 25.1621V24.7578V24.36H32.0205C32.29 24.36 32.6237 24.3279 32.7584 24.2894C33.0921 24.1996 33.4386 23.8787 33.6118 23.4937C33.9006 22.8777 33.7851 22.4029 33.1947 21.7741L32.7777 21.3377L34.2342 19.8876L35.6844 18.431L36.1272 18.8481C36.448 19.1561 36.6469 19.2908 36.8651 19.355C37.3977 19.5026 37.988 19.3165 38.373 18.8802C38.6232 18.5914 38.7067 18.2962 38.7067 17.6738V17.1733H40.76H42.8133V17.6738C42.8133 17.9433 42.8454 18.277 42.8839 18.4117C42.9737 18.7454 43.2946 19.0919 43.6796 19.2652C44.2956 19.5539 44.7704 19.4384 45.3992 18.8481L45.8356 18.431L47.2857 19.8876L48.7423 21.3377L48.3252 21.7741C47.7798 22.358 47.6707 22.6917 47.8312 23.3141C47.9274 23.6991 48.3894 24.1932 48.7487 24.2894C48.8899 24.3279 49.23 24.36 49.5059 24.36H50V26.4133V28.4667H49.5059C49.23 28.4667 48.8963 28.4987 48.7616 28.5372C48.1969 28.6912 47.7092 29.4163 47.767 30.0131C47.7927 30.2312 47.8825 30.443 48.1007 30.7831C48.5434 31.4697 49.1273 32.6952 49.3904 33.4845C50.6609 37.3153 49.8973 41.4668 47.3435 44.6303L46.9072 45.1693L48.3573 46.6194C49.153 47.4151 49.8075 48.1017 49.8075 48.1338C49.8075 48.2172 49.2172 48.8075 49.1337 48.8075C49.0952 48.8075 48.4151 48.153 47.6194 47.3573L46.1628 45.9008L45.6623 46.3178C43.2625 48.3006 39.9772 49.2823 36.91 48.9294ZM39.3355 47.9092C40.0798 47.8258 41.3118 47.5306 41.9856 47.2739C43.07 46.8568 44.3726 46.0868 45.0912 45.4452L45.4121 45.1564L44.6998 44.4377L43.9812 43.7191L43.4807 44.1105C39.4317 47.2162 33.6247 46.1959 30.8462 41.8903C30.2752 40.9984 29.8324 39.8883 29.6142 38.8103C29.4602 38.0403 29.4602 36.3463 29.6142 35.5763C30.1532 32.8813 31.8857 30.6034 34.3177 29.3778C34.8695 29.1019 35.9154 28.749 36.5763 28.6142C37.3463 28.4602 39.0403 28.4602 39.8103 28.6142C42.8775 29.2238 45.3736 31.367 46.4067 34.2737C47.3948 37.0714 46.9136 40.1258 45.1105 42.4807L44.7191 42.9812L45.4377 43.6998L46.1564 44.4121L46.4452 44.0912C46.6056 43.918 46.9136 43.4945 47.1382 43.1608C49.5701 39.5354 49.5765 34.8833 47.1574 31.2258C45.5019 28.7297 42.8518 27.0293 39.8296 26.5352C39.1622 26.4262 37.2116 26.4262 36.5892 26.5352C35.3507 26.747 34.3947 27.0614 33.3487 27.5812C28.0742 30.2184 25.9118 36.68 28.5362 41.9545C29.8388 44.5725 32.0462 46.4975 34.8246 47.4215C36.2234 47.8899 37.8468 48.0632 39.3355 47.9092ZM39.7205 44.7393C40.4392 44.5853 41.1193 44.3351 41.7353 44.0142C42.2872 43.7191 43.1406 43.1223 43.1791 43.0004C43.1919 42.9619 41.7289 41.4604 39.9258 39.6637L36.6533 36.3912L35.5753 37.4692C34.985 38.0596 34.4717 38.5408 34.4396 38.5408C34.3562 38.5408 33.7658 37.9505 33.7658 37.8671C33.7658 37.835 34.4139 37.1548 35.2096 36.3592L36.6533 34.9154L40.3172 38.5729L43.9748 42.2304L44.2186 41.9545C44.5458 41.5759 45.0142 40.7931 45.2837 40.1707C46.15 38.1558 46.073 35.7432 45.0848 33.7732C44.3341 32.291 43.0892 31.0462 41.607 30.3018C40.529 29.7628 39.4959 29.5254 38.1933 29.5254C37.6607 29.5254 37.0704 29.5639 36.8137 29.6152C33.6439 30.2441 31.2441 32.6439 30.6152 35.8137C30.4805 36.4747 30.4997 38.0532 30.6473 38.7333C30.9682 40.2348 31.674 41.531 32.7648 42.6218C34.0225 43.8731 35.4342 44.5661 37.3271 44.8548C37.7185 44.9126 39.2649 44.8356 39.7205 44.7393ZM28.3951 30.6227C28.5234 30.4302 28.8186 30.0323 29.056 29.7436L29.4795 29.2174L26.0081 25.746L22.5367 22.2746L21.7538 23.0638L20.9646 23.8467L24.5258 27.4079C26.4829 29.365 28.1063 30.9692 28.1256 30.9692C28.1448 30.9692 28.2667 30.8152 28.3951 30.6227ZM47.4141 28.1972C47.69 27.9084 48.1392 27.6517 48.5755 27.5298L48.9733 27.4207V26.4133V25.4059L48.5755 25.2968C47.8247 25.0915 47.305 24.6487 46.9713 23.9365C46.6184 23.1857 46.6762 22.2617 47.1189 21.5944L47.305 21.3121L46.5863 20.5934C45.8933 19.894 45.8612 19.8747 45.7201 19.9646C45.6367 20.0159 45.5083 20.1057 45.4249 20.1571C45.3479 20.2084 45.0977 20.2982 44.8667 20.356C43.5577 20.6897 42.2422 19.9197 41.8765 18.6042L41.7674 18.2H40.76H39.7526L39.6435 18.6042C39.4382 19.3486 38.9954 19.8683 38.2832 20.202C37.5324 20.5549 36.6084 20.4972 35.9411 20.0544L35.6587 19.8683L34.9465 20.5806L34.2342 21.2928L34.4973 21.8062C34.7476 22.3002 34.7604 22.3452 34.7604 22.9098C34.7604 23.4296 34.7412 23.5387 34.5615 23.9108C34.2086 24.6552 33.7081 25.0851 32.9509 25.2968L32.5467 25.4059V25.8037C32.5467 26.1631 32.5659 26.2144 32.7584 26.4005L32.9702 26.6058L33.5412 26.3556C33.9968 26.1567 34.9593 25.8358 35.6074 25.669C35.6459 25.6626 35.7101 25.5022 35.7486 25.3225C35.9539 24.3664 36.4929 23.436 37.2501 22.7109C37.8083 22.1783 38.3345 21.8511 39.0082 21.6008C41.2669 20.7795 43.7373 21.6137 45.0656 23.6413C45.38 24.1226 45.5661 24.5525 45.7522 25.2262C45.8997 25.7524 45.8933 27.0678 45.7457 27.6197L45.6367 28.0239L46.0409 28.3897C46.2591 28.5886 46.5222 28.8452 46.6312 28.9607L46.8173 29.1661L47.0291 28.7747C47.1446 28.5565 47.3178 28.2934 47.4141 28.1972ZM30.75 28.0496C31.0387 27.8186 31.4302 27.5234 31.6227 27.3951C31.8152 27.2667 31.9692 27.1448 31.9692 27.1256C31.9692 27.1063 30.365 25.4829 28.4079 23.5258L24.8467 19.9646L24.0638 20.7538L23.2746 21.5367L26.7396 25.0017C28.6453 26.9074 30.211 28.4667 30.2174 28.4667C30.2238 28.4667 30.4677 28.2806 30.75 28.0496ZM44.8346 26.4133C44.8346 25.8294 44.8025 25.5792 44.6934 25.2262C44.2956 23.9622 43.2176 22.8777 41.9792 22.4927C40.4263 22.0115 38.5847 22.5697 37.5837 23.8274C37.2886 24.1996 36.8972 24.9439 36.8202 25.2776C36.7817 25.438 36.7945 25.4508 36.987 25.4508C37.1025 25.4508 37.3463 25.4316 37.526 25.4123C37.8532 25.3738 37.8597 25.361 38.0072 25.0402C38.2062 24.6231 38.8992 23.9108 39.3291 23.6927C40.0349 23.3397 40.7857 23.2499 41.4979 23.4296C42.8711 23.7889 43.8336 25.0273 43.84 26.4454L43.8464 26.8304L44.2763 27.0935C44.6485 27.3181 44.7127 27.3373 44.7704 27.2539C44.8089 27.1962 44.8346 26.8176 44.8346 26.4133ZM42.7812 26.0797C42.6465 25.4252 42.2294 24.8797 41.6391 24.5717C41.3632 24.4306 41.222 24.3985 40.7921 24.3985C40.1697 24.3921 39.7012 24.5782 39.2906 25.0017C38.9569 25.3482 38.9505 25.4508 39.2713 25.4508C39.8745 25.4508 41.3696 25.7845 42.2358 26.1117C42.8069 26.3299 42.8326 26.3299 42.7812 26.0797ZM22.1773 21.1581L23.8328 19.5026L22.5752 19.1882L21.3175 18.8737L20.5988 19.5988L19.8737 20.3175L20.1882 21.5687C20.355 22.2553 20.5026 22.82 20.509 22.82C20.509 22.82 21.2597 22.0757 22.1773 21.1581ZM20.047 18.5786C19.9957 18.5337 19.4374 18.3861 19.4117 18.4182C19.3989 18.431 19.4952 18.8352 19.5593 19.0277C19.5786 19.0919 19.662 19.0534 19.8417 18.8737C19.9828 18.7326 20.0791 18.6042 20.047 18.5786Z" fill="#126F0C"/>
<path d="M35.625 33.0866V32.5732H36.1383H36.6517V33.0866V33.5999H36.1383H35.625V33.0866Z" fill="#126F0C"/>
<path d="M37.6797 33.0866V32.5732H38.193H38.7064V33.0866V33.5999H38.193H37.6797V33.0866Z" fill="#126F0C"/>
<path d="M39.7344 33.0866V32.5732H40.2477H40.761V33.0866V33.5999H40.2477H39.7344V33.0866Z" fill="#126F0C"/>
<path d="M47.0807 26.7662C46.7599 26.4517 46.9844 25.8999 47.4336 25.8999C47.6967 25.8999 47.9469 26.1502 47.9469 26.4132C47.9469 26.6763 47.6967 26.9266 47.4336 26.9266C47.3117 26.9266 47.1769 26.8688 47.0807 26.7662Z" fill="#126F0C"/>
<path d="M35.7877 22.146C35.4669 21.8316 35.6915 21.2798 36.1406 21.2798C36.4037 21.2798 36.654 21.53 36.654 21.7931C36.654 22.0562 36.4037 22.3065 36.1406 22.3065C36.0187 22.3065 35.884 22.2487 35.7877 22.146Z" fill="#126F0C"/>
<path d="M45.026 22.146C44.7052 21.8316 44.9297 21.2798 45.3789 21.2798C45.642 21.2798 45.8922 21.53 45.8922 21.7931C45.8922 22.0562 45.642 22.3065 45.3789 22.3065C45.257 22.3065 45.1222 22.2487 45.026 22.146Z" fill="#126F0C"/>
<path d="M40.4088 20.0928C40.088 19.7784 40.3126 19.2266 40.7617 19.2266C41.0248 19.2266 41.2751 19.4768 41.2751 19.7399C41.2751 20.003 41.0248 20.2532 40.7617 20.2532C40.6398 20.2532 40.5051 20.1955 40.4088 20.0928Z" fill="#126F0C"/>
<path d="M22.2812 47.4601V46.9468H24.8479H27.4146V47.4601V47.9734H24.8479H22.2812V47.4601Z" fill="#126F0C"/>
<path d="M18.1719 43.3535V41.8135H19.7119H21.2519V43.3535V44.8935H19.7119H18.1719V43.3535ZM20.2252 43.3535V42.8401H19.7119H19.1985V43.3535V43.8668H19.7119H20.2252V43.3535Z" fill="#126F0C"/>
<path d="M22.2812 43.3532V42.8398H24.8479H27.4146V43.3532V43.8665H24.8479H22.2812V43.3532Z" fill="#126F0C"/>
<path d="M18.1719 39.2465V37.7065H19.7119H21.2519V39.2465V40.7865H19.7119H18.1719V39.2465ZM20.2252 39.2465V38.7332H19.7119H19.1985V39.2465V39.7599H19.7119H20.2252V39.2465Z" fill="#126F0C"/>
<path d="M18.1719 35.1401V33.6001H19.7119H21.2519V35.1401V36.6801H19.7119H18.1719V35.1401ZM20.2252 35.1401V34.6268H19.7119H19.1985V35.1401V35.6534H19.7119H20.2252V35.1401Z" fill="#126F0C"/>
<rect x="2.5" y="1.5" width="63" height="63" rx="31.5" stroke="#F3F3F2"/>
</g>
<defs>
<filter id="filter0_d_894_12720" x="0" y="0" width="68" height="68" filterUnits="userSpaceOnUse" color-interpolation-filters="sRGB">
<feFlood flood-opacity="0" result="BackgroundImageFix"/>
<feColorMatrix in="SourceAlpha" type="matrix" values="0 0 0 0 0 0 0 0 0 0 0 0 0 0 0 0 0 0 127 0" result="hardAlpha"/>
<feOffset dy="1"/>
<feGaussianBlur stdDeviation="1"/>
<feColorMatrix type="matrix" values="0 0 0 0 0.0627451 0 0 0 0 0.0941176 0 0 0 0 0.156863 0 0 0 0.05 0"/>
<feBlend mode="normal" in2="BackgroundImageFix" result="effect1_dropShadow_894_12720"/>
<feBlend mode="normal" in="SourceGraphic" in2="effect1_dropShadow_894_12720" result="shape"/>
</filter>
</defs>
</svg>
